<?xml version="1.0" standalone="no"?>
<!DOCTYPE svg PUBLIC "-//W3C//DTD SVG 20010904//EN"
 "http://www.w3.org/TR/2001/REC-SVG-20010904/DTD/svg10.dtd">
<svg version="1.0" xmlns="http://www.w3.org/2000/svg"
 width="300.000000pt" height="300.000000pt" viewBox="0 0 300.000000 300.000000"
 preserveAspectRatio="xMidYMid meet">
<metadata>
Created by potrace 1.11, written by Peter Selinger 2001-2013
</metadata>
<g transform="translate(0.000000,300.000000) scale(0.100000,-0.100000)"
fill="#000000" stroke="none">
<path d="M0 1500 l0 -1500 1500 0 1500 0 0 1500 0 1500 -1500 0 -1500 0 0
-1500z m1390 945 c69 -8 208 -29 310 -46 175 -30 198 -32 435 -32 192 1 282 5
390 20 77 11 142 19 144 17 6 -5 -108 -175 -192 -287 -90 -120 -86 -117 -258
-152 -46 -9 -92 -24 -103 -34 -29 -26 -220 -268 -381 -486 -568 -766 -669
-886 -796 -951 -41 -21 -68 -27 -114 -27 -73 0 -106 15 -166 80 -25 28 -54 55
-64 61 -19 10 -16 18 48 149 37 76 67 143 67 150 0 26 21 22 68 -11 61 -44
188 -105 234 -112 l35 -6 128 173 c164 222 334 473 518 764 l145 230 -52 12
c-100 23 -403 63 -568 73 -239 16 -491 -4 -717 -56 -35 -8 -65 -13 -67 -11 -2
2 42 73 99 158 56 86 125 194 152 241 46 79 53 87 85 91 95 11 504 6 620 -8z"/>
</g>
</svg>
